<svg width="29" height="24" viewBox="0 0 29 24" fill="none" xmlns="http://www.w3.org/2000/svg">
    <path d="M5.9 9.0001H24.62V7.0001C24.6092 6.19741 24.2814 5.43154 23.7082 4.86955C23.135 4.30755 22.3628 3.99502 21.56 4.0001H15.08C14.8373 4.00032 14.6014 3.91936 14.41 3.7701L10.4 0.650105C9.85936 0.230117 9.1946 0.00149294 8.51 0.000104768H3.06C2.25678 -0.0065649 1.48366 0.305455 0.910083 0.867789C0.336502 1.43012 0.00923552 2.19691 0 3.0001V20.6501L2.98 11.1101C3.18015 10.4943 3.57088 9.95797 4.09575 9.5787C4.62061 9.19943 5.25245 8.99681 5.9 9.0001Z" fill="white"/>
    <path d="M27.82 11.0001H5.89998C5.67934 10.9955 5.46287 11.0606 5.28148 11.1863C5.1001 11.3121 4.96307 11.4919 4.88998 11.7001L1.22998 23.3901C1.31998 23.4501 1.39998 23.5101 1.49998 23.5701C1.59998 23.6301 1.67998 23.6701 1.76998 23.7101C1.89259 23.7671 2.01969 23.814 2.14998 23.8501C2.22998 23.8701 2.29998 23.9001 2.37998 23.9201C2.58702 23.9664 2.79794 23.9932 3.00998 24.0001H22.09C22.7375 24.0034 23.3694 23.8008 23.8942 23.4215C24.4191 23.0422 24.8098 22.506 25.01 21.8901L27.86 12.8901C28.0623 12.2739 28.0482 11.6072 27.82 11.0001Z" fill="white"/>
</svg>
