<svg width="31" height="29" viewBox="0 0 31 29" fill="none" xmlns="http://www.w3.org/2000/svg">
<path d="M24.2208 1.51905C23.6943 0.621428 22.7728 0 21.7197 0H9.14862C8.09554 0 7.1741 0.552381 6.64756 1.51905L0.394904 12.981C-0.131635 13.8786 -0.131635 15.0524 0.394904 16.019L6.71338 27.481C7.23991 28.3786 8.16136 29 9.21444 29H21.7856C22.8386 29 23.7601 28.4476 24.2866 27.481L30.6051 16.019C31.1316 15.1214 31.1316 13.9476 30.6051 12.981L24.2208 1.51905ZM22.7728 12.0143L15.2038 19.9548C14.8089 20.369 14.3482 20.5762 13.8217 20.5762C13.2951 20.5762 12.7686 20.369 12.4395 19.9548L8.16136 15.4667C7.37155 14.6381 7.37155 13.3262 8.16136 12.5667C8.95117 11.7381 10.2017 11.7381 10.9257 12.5667L13.8217 15.6048L20.0085 9.11429C20.7983 8.28572 22.0488 8.28572 22.7728 9.11429C23.5626 9.87381 23.5626 11.1857 22.7728 12.0143Z" fill="#2A419D"/>
</svg>
