<svg width="29" height="29" viewBox="0 0 29 29" fill="none" xmlns="http://www.w3.org/2000/svg">
<path opacity="0.5" d="M20.3 18.125V27.55C20.2988 27.9342 20.1441 28.3024 19.8697 28.574C19.5953 28.8457 19.2234 28.9989 18.8353 29H1.46465C1.07655 28.9989 0.704688 28.8457 0.430265 28.574C0.155842 28.3024 0.00115907 27.9342 0 27.55V1.45C0.00115907 1.06579 0.155842 0.697642 0.430265 0.425963C0.704688 0.154283 1.07655 0.00114748 1.46465 0H18.8353C19.2234 0.00114748 19.5953 0.154283 19.8697 0.425963C20.1441 0.697642 20.2988 1.06579 20.3 1.45V10.875C20.3 11.0673 20.2228 11.2517 20.0855 11.3877C19.9482 11.5236 19.7619 11.6 19.5677 11.6H11.6464C10.9321 11.5831 10.2345 11.8143 9.67452 12.2536C9.11456 12.6928 8.72767 13.3123 8.58102 14.0046C8.50941 14.421 8.53032 14.8479 8.6423 15.2556C8.75429 15.6632 8.95465 16.0418 9.22945 16.365C9.50426 16.6881 9.84689 16.9481 10.2335 17.1269C10.6201 17.3056 11.0415 17.3988 11.4682 17.4H19.5677C19.7619 17.4 19.9482 17.4764 20.0855 17.6123C20.2228 17.7483 20.3 17.9327 20.3 18.125ZM28.6485 13.5575L24.7964 9.135C24.5439 8.84275 24.1845 8.66177 23.7972 8.63187C23.41 8.60197 23.0266 8.7256 22.7313 8.97556C22.4361 9.22551 22.2533 9.58133 22.2231 9.96474C22.1929 10.3481 22.3177 10.7277 22.5702 11.02L24.3424 13.05H11.4682C11.0797 13.05 10.7072 13.2028 10.4325 13.4747C10.1578 13.7466 10.0035 14.1154 10.0035 14.5C10.0035 14.8846 10.1578 15.2534 10.4325 15.5253C10.7072 15.7972 11.0797 15.95 11.4682 15.95H24.3424L22.5702 17.98C22.3206 18.2726 22.1981 18.6511 22.2294 19.0329C22.2607 19.4146 22.4433 19.7686 22.7373 20.0176C23.0313 20.2665 23.4128 20.3902 23.7986 20.3616C24.1844 20.333 24.5431 20.1545 24.7964 19.865L28.6485 15.4425C28.8753 15.1798 29 14.8456 29 14.5C29 14.1544 28.8753 13.8202 28.6485 13.5575Z" fill="#2A419D"/>
</svg>
