<svg viewBox="0 0 39 39" height="40" width="40" fill="none" xmlns="http://www.w3.org/2000/svg">
    <path fill-rule="evenodd" clip-rule="evenodd"
          d="M19.5 39C8.73 39 0 30.269 0 19.5V1.147C0 .513.513 0 1.147 0H19.5C30.27 0 39 8.73 39 19.5 39 30.269 30.27 39 19.5 39zm0-5.736c7.602 0 13.764-6.162 13.764-13.764 0-7.602-6.162-13.765-13.764-13.765H6.883c-.634 0-1.147.514-1.147 1.148V19.5c0 7.602 6.162 13.764 13.764 13.764zM8.03 19.5V8.03H19.5c6.334 0 11.47 5.135 11.47 11.47 0 6.334-5.136 11.47-11.47 11.47-6.334 0-11.47-5.136-11.47-11.47z"
          fill="#BFCB9D"/>
</svg>
